%TF.GenerationSoftware,KiCad,Pcbnew,9.0.3*%
%TF.CreationDate,2025-12-04T00:09:04+01:00*%
%TF.ProjectId,power_consumbtion_driver,706f7765-725f-4636-9f6e-73756d627469,rev?*%
%TF.SameCoordinates,Original*%
%TF.FileFunction,Soldermask,Top*%
%TF.FilePolarity,Negative*%
%FSLAX46Y46*%
G04 Gerber Fmt 4.6, Leading zero omitted, Abs format (unit mm)*
G04 Created by KiCad (PCBNEW 9.0.3) date 2025-12-04 00:09:04*
%MOMM*%
%LPD*%
G01*
G04 APERTURE LIST*
G04 Aperture macros list*
%AMRoundRect*
0 Rectangle with rounded corners*
0 $1 Rounding radius*
0 $2 $3 $4 $5 $6 $7 $8 $9 X,Y pos of 4 corners*
0 Add a 4 corners polygon primitive as box body*
4,1,4,$2,$3,$4,$5,$6,$7,$8,$9,$2,$3,0*
0 Add four circle primitives for the rounded corners*
1,1,$1+$1,$2,$3*
1,1,$1+$1,$4,$5*
1,1,$1+$1,$6,$7*
1,1,$1+$1,$8,$9*
0 Add four rect primitives between the rounded corners*
20,1,$1+$1,$2,$3,$4,$5,0*
20,1,$1+$1,$4,$5,$6,$7,0*
20,1,$1+$1,$6,$7,$8,$9,0*
20,1,$1+$1,$8,$9,$2,$3,0*%
G04 Aperture macros list end*
%ADD10RoundRect,0.250000X0.350000X0.450000X-0.350000X0.450000X-0.350000X-0.450000X0.350000X-0.450000X0*%
%ADD11RoundRect,0.250000X-0.350000X-0.450000X0.350000X-0.450000X0.350000X0.450000X-0.350000X0.450000X0*%
%ADD12RoundRect,0.250000X0.450000X-0.350000X0.450000X0.350000X-0.450000X0.350000X-0.450000X-0.350000X0*%
%ADD13RoundRect,0.155000X-0.155000X0.212500X-0.155000X-0.212500X0.155000X-0.212500X0.155000X0.212500X0*%
%ADD14C,1.700000*%
%ADD15R,1.700000X1.700000*%
%ADD16R,0.680999X0.331000*%
%ADD17R,0.450000X1.400000*%
%ADD18C,1.320000*%
%ADD19R,0.500000X1.250000*%
%ADD20RoundRect,0.155000X0.212500X0.155000X-0.212500X0.155000X-0.212500X-0.155000X0.212500X-0.155000X0*%
%ADD21O,2.600000X1.800000*%
%ADD22R,2.600000X1.800000*%
%ADD23C,3.000000*%
%ADD24RoundRect,0.155000X-0.212500X-0.155000X0.212500X-0.155000X0.212500X0.155000X-0.212500X0.155000X0*%
%ADD25C,1.734000*%
%ADD26RoundRect,0.102000X-0.765000X-0.765000X0.765000X-0.765000X0.765000X0.765000X-0.765000X0.765000X0*%
%ADD27RoundRect,0.155000X0.155000X-0.212500X0.155000X0.212500X-0.155000X0.212500X-0.155000X-0.212500X0*%
%ADD28C,1.600000*%
%ADD29R,1.525000X0.700000*%
%ADD30RoundRect,0.250000X-0.450000X0.350000X-0.450000X-0.350000X0.450000X-0.350000X0.450000X0.350000X0*%
%ADD31R,1.150000X0.600000*%
%ADD32C,1.800000*%
%ADD33R,1.800000X1.800000*%
%ADD34R,1.000000X1.700000*%
%ADD35R,0.700000X0.300000*%
%ADD36C,1.950000*%
%ADD37R,1.950000X1.950000*%
%ADD38C,5.500000*%
G04 APERTURE END LIST*
D10*
%TO.C,R11*%
X154935000Y-84640007D03*
X156935000Y-84640007D03*
%TD*%
D11*
%TO.C,R4*%
X146335000Y-122965000D03*
X144335000Y-122965000D03*
%TD*%
D12*
%TO.C,R2*%
X167120000Y-109650000D03*
X167120000Y-111650000D03*
%TD*%
D13*
%TO.C,C16*%
X159285000Y-89065000D03*
X159285000Y-87930000D03*
%TD*%
D14*
%TO.C,J9*%
X146535000Y-147845000D03*
X146535000Y-145305000D03*
D15*
X146535000Y-142765000D03*
%TD*%
D16*
%TO.C,R13*%
X164549600Y-82590021D03*
X164549600Y-83240007D03*
X164549600Y-83889993D03*
X164549600Y-84539979D03*
X161735000Y-84539979D03*
X161735000Y-83889993D03*
X161735000Y-83240007D03*
X161735000Y-82590021D03*
%TD*%
D14*
%TO.C,J7*%
X201135000Y-148145000D03*
X201135000Y-145605000D03*
D15*
X201135000Y-143065000D03*
%TD*%
D11*
%TO.C,R12*%
X147647000Y-75110000D03*
X145647000Y-75110000D03*
%TD*%
D17*
%TO.C,IC2*%
X167185000Y-99590000D03*
X167835000Y-99590000D03*
X168485000Y-99590000D03*
X169135000Y-99590000D03*
X169135000Y-103990000D03*
X168485000Y-103990000D03*
X167835000Y-103990000D03*
X167185000Y-103990000D03*
%TD*%
D18*
%TO.C,K1*%
X202135000Y-133565000D03*
X197055000Y-133565000D03*
X191975000Y-133565000D03*
X186895000Y-133565000D03*
%TD*%
D14*
%TO.C,J3*%
X177935000Y-143145000D03*
X177935000Y-145685000D03*
D15*
X177935000Y-148225000D03*
%TD*%
D11*
%TO.C,Rfbb1*%
X146945000Y-105165000D03*
X144945000Y-105165000D03*
%TD*%
D19*
%TO.C,IC3*%
X156835000Y-90765000D03*
X154935000Y-90765000D03*
X154935000Y-88265000D03*
X155885000Y-88265000D03*
X156835000Y-88265000D03*
%TD*%
D11*
%TO.C,R10*%
X156935000Y-81240007D03*
X154935000Y-81240007D03*
%TD*%
D20*
%TO.C,C8*%
X145600000Y-120165000D03*
X146735000Y-120165000D03*
%TD*%
D13*
%TO.C,C3*%
X187532500Y-127752500D03*
X187532500Y-126617500D03*
%TD*%
D21*
%TO.C,DS1*%
X129735000Y-93964100D03*
X129735000Y-91424100D03*
X129735000Y-88884100D03*
X129735000Y-86344100D03*
X129735000Y-83804100D03*
X129735000Y-81264100D03*
X129735000Y-78724100D03*
X129735000Y-76184100D03*
X129735000Y-73644100D03*
X129735000Y-71104100D03*
X129735000Y-68564100D03*
X129735000Y-66024100D03*
X129735000Y-63484100D03*
X129735000Y-60944100D03*
X129735000Y-58404100D03*
D22*
X129735000Y-55864100D03*
D23*
X129735000Y-125364100D03*
X98734300Y-125363580D03*
X98734300Y-50365000D03*
X129735000Y-50365000D03*
%TD*%
D24*
%TO.C,C6*%
X147135000Y-109365000D03*
X146000000Y-109365000D03*
%TD*%
%TO.C,C5*%
X147197500Y-107685000D03*
X146062500Y-107685000D03*
%TD*%
D25*
%TO.C,U1*%
X200557500Y-125405000D03*
X198017500Y-125405000D03*
X200557500Y-122865000D03*
X198017500Y-122865000D03*
X200557500Y-120325000D03*
X198017500Y-120325000D03*
X200557500Y-117785000D03*
X198017500Y-117785000D03*
X200557500Y-115245000D03*
X198017500Y-115245000D03*
X200557500Y-112705000D03*
X198017500Y-112705000D03*
X200557500Y-110165000D03*
X198017500Y-110165000D03*
X200557500Y-107625000D03*
X198017500Y-107625000D03*
X200557500Y-105085000D03*
X198017500Y-105085000D03*
X200557500Y-102545000D03*
X198017500Y-102545000D03*
X200557500Y-100005000D03*
X198017500Y-100005000D03*
X200557500Y-97465000D03*
X198017500Y-97465000D03*
X200557500Y-94925000D03*
X198017500Y-94925000D03*
X200557500Y-92385000D03*
X198017500Y-92385000D03*
X200557500Y-89845000D03*
X198017500Y-89845000D03*
X200557500Y-87305000D03*
X198017500Y-87305000D03*
X200557500Y-84765000D03*
X198017500Y-84765000D03*
X200557500Y-82225000D03*
X198017500Y-82225000D03*
X200557500Y-79685000D03*
D26*
X198017500Y-79685000D03*
D25*
X139597500Y-125405000D03*
X137057500Y-125405000D03*
X139597500Y-122865000D03*
X137057500Y-122865000D03*
X139597500Y-120325000D03*
X137057500Y-120325000D03*
X139597500Y-117785000D03*
X137057500Y-117785000D03*
X139597500Y-115245000D03*
X137057500Y-115245000D03*
X139597500Y-112705000D03*
X137057500Y-112705000D03*
X139597500Y-110165000D03*
X137057500Y-110165000D03*
X139597500Y-107625000D03*
X137057500Y-107625000D03*
X139597500Y-105085000D03*
X137057500Y-105085000D03*
X139597500Y-102545000D03*
X137057500Y-102545000D03*
X139597500Y-100005000D03*
X137057500Y-100005000D03*
X139597500Y-97465000D03*
X137057500Y-97465000D03*
X139597500Y-94925000D03*
X137057500Y-94925000D03*
X139597500Y-92385000D03*
X137057500Y-92385000D03*
X139597500Y-89845000D03*
X137057500Y-89845000D03*
X139597500Y-87305000D03*
X137057500Y-87305000D03*
X139597500Y-84765000D03*
X137057500Y-84765000D03*
X139597500Y-82225000D03*
X137057500Y-82225000D03*
X139597500Y-79685000D03*
D26*
X137057500Y-79685000D03*
%TD*%
D27*
%TO.C,C9*%
X167190000Y-95805000D03*
X167190000Y-96940000D03*
%TD*%
D13*
%TO.C,C1*%
X191935000Y-127732500D03*
X191935000Y-126597500D03*
%TD*%
D14*
%TO.C,J2*%
X162135000Y-147965000D03*
X162135000Y-145425000D03*
D15*
X162135000Y-142885000D03*
%TD*%
D27*
%TO.C,C10*%
X169590000Y-95805000D03*
X169590000Y-96940000D03*
%TD*%
%TO.C,C15*%
X158122500Y-107495000D03*
X158122500Y-108630000D03*
%TD*%
D28*
%TO.C,SupCap1*%
X140685000Y-136565000D03*
X137185000Y-136565000D03*
%TD*%
D29*
%TO.C,Q1*%
X158447000Y-74060000D03*
X158447000Y-75330000D03*
X158447000Y-76600000D03*
X158447000Y-77870000D03*
X153023000Y-77870000D03*
X153023000Y-76600000D03*
X153023000Y-75330000D03*
X153023000Y-74060000D03*
%TD*%
D10*
%TO.C,R14*%
X145735000Y-78365000D03*
X147735000Y-78365000D03*
%TD*%
D14*
%TO.C,J4*%
X185935000Y-148165000D03*
X185935000Y-145625000D03*
D15*
X185935000Y-143085000D03*
%TD*%
D30*
%TO.C,R8*%
X176135000Y-127965000D03*
X176135000Y-125965000D03*
%TD*%
D27*
%TO.C,C2*%
X145935000Y-96365000D03*
X145935000Y-97500000D03*
%TD*%
D14*
%TO.C,J1*%
X170135000Y-143085000D03*
X170135000Y-145625000D03*
D15*
X170135000Y-148165000D03*
%TD*%
D12*
%TO.C,Rfbt1*%
X158535000Y-103565000D03*
X158535000Y-105565000D03*
%TD*%
D14*
%TO.C,J6*%
X154335000Y-142765000D03*
X154335000Y-145305000D03*
D15*
X154335000Y-147845000D03*
%TD*%
D31*
%TO.C,IC1*%
X150635000Y-95415000D03*
X150635000Y-96365000D03*
X150635000Y-97315000D03*
X148035000Y-97315000D03*
X148035000Y-96365000D03*
X148035000Y-95415000D03*
%TD*%
D13*
%TO.C,C7*%
X146335000Y-113900000D03*
X146335000Y-112765000D03*
%TD*%
D30*
%TO.C,R1*%
X148935000Y-114765000D03*
X148935000Y-112765000D03*
%TD*%
D32*
%TO.C,D2*%
X176135000Y-135505000D03*
D33*
X176135000Y-132965000D03*
%TD*%
D14*
%TO.C,J10*%
X138935000Y-147905000D03*
D15*
X138935000Y-145365000D03*
%TD*%
D12*
%TO.C,R3*%
X170320000Y-109650000D03*
X170320000Y-111650000D03*
%TD*%
D34*
%TO.C,U2*%
X152070000Y-108450000D03*
D35*
X153120000Y-107700000D03*
X153120000Y-108200000D03*
X153120000Y-108700000D03*
X153120000Y-109200000D03*
X151020000Y-109200000D03*
X151020000Y-108700000D03*
X151020000Y-108200000D03*
X151020000Y-107700000D03*
%TD*%
D36*
%TO.C,J11*%
X119620000Y-131410000D03*
X129780000Y-131410000D03*
X129780000Y-141570000D03*
X119620000Y-141570000D03*
D37*
X124700000Y-136490000D03*
%TD*%
D10*
%TO.C,R6*%
X141500000Y-151550000D03*
X143500000Y-151550000D03*
%TD*%
D27*
%TO.C,C4*%
X144135000Y-96365000D03*
X144135000Y-97500000D03*
%TD*%
D32*
%TO.C,D1*%
X167935000Y-135505000D03*
D33*
X167935000Y-132965000D03*
%TD*%
D11*
%TO.C,R9*%
X153135000Y-105165000D03*
X151135000Y-105165000D03*
%TD*%
D12*
%TO.C,R7*%
X167935000Y-125965000D03*
X167935000Y-127965000D03*
%TD*%
D14*
%TO.C,J8*%
X193935000Y-142865000D03*
X193935000Y-145405000D03*
D15*
X193935000Y-147945000D03*
%TD*%
D38*
%TO.C,MH1*%
X92500000Y-45000000D03*
%TD*%
%TO.C,MH2*%
X207500000Y-45000000D03*
%TD*%
%TO.C,MH3*%
X207500000Y-155000000D03*
%TD*%
%TO.C,MH4*%
X92500000Y-155000000D03*
%TD*%
M02*
