%TF.GenerationSoftware,KiCad,Pcbnew,9.0.3*%
%TF.CreationDate,2025-12-04T00:09:04+01:00*%
%TF.ProjectId,power_consumbtion_driver,706f7765-725f-4636-9f6e-73756d627469,rev?*%
%TF.SameCoordinates,Original*%
%TF.FileFunction,Paste,Top*%
%TF.FilePolarity,Positive*%
%FSLAX46Y46*%
G04 Gerber Fmt 4.6, Leading zero omitted, Abs format (unit mm)*
G04 Created by KiCad (PCBNEW 9.0.3) date 2025-12-04 00:09:04*
%MOMM*%
%LPD*%
G01*
G04 APERTURE LIST*
G04 Aperture macros list*
%AMRoundRect*
0 Rectangle with rounded corners*
0 $1 Rounding radius*
0 $2 $3 $4 $5 $6 $7 $8 $9 X,Y pos of 4 corners*
0 Add a 4 corners polygon primitive as box body*
4,1,4,$2,$3,$4,$5,$6,$7,$8,$9,$2,$3,0*
0 Add four circle primitives for the rounded corners*
1,1,$1+$1,$2,$3*
1,1,$1+$1,$4,$5*
1,1,$1+$1,$6,$7*
1,1,$1+$1,$8,$9*
0 Add four rect primitives between the rounded corners*
20,1,$1+$1,$2,$3,$4,$5,0*
20,1,$1+$1,$4,$5,$6,$7,0*
20,1,$1+$1,$6,$7,$8,$9,0*
20,1,$1+$1,$8,$9,$2,$3,0*%
G04 Aperture macros list end*
%ADD10RoundRect,0.250000X0.350000X0.450000X-0.350000X0.450000X-0.350000X-0.450000X0.350000X-0.450000X0*%
%ADD11RoundRect,0.250000X-0.350000X-0.450000X0.350000X-0.450000X0.350000X0.450000X-0.350000X0.450000X0*%
%ADD12RoundRect,0.250000X0.450000X-0.350000X0.450000X0.350000X-0.450000X0.350000X-0.450000X-0.350000X0*%
%ADD13RoundRect,0.155000X-0.155000X0.212500X-0.155000X-0.212500X0.155000X-0.212500X0.155000X0.212500X0*%
%ADD14R,0.680999X0.331000*%
%ADD15R,0.450000X1.400000*%
%ADD16R,0.500000X1.250000*%
%ADD17RoundRect,0.155000X0.212500X0.155000X-0.212500X0.155000X-0.212500X-0.155000X0.212500X-0.155000X0*%
%ADD18RoundRect,0.155000X-0.212500X-0.155000X0.212500X-0.155000X0.212500X0.155000X-0.212500X0.155000X0*%
%ADD19RoundRect,0.155000X0.155000X-0.212500X0.155000X0.212500X-0.155000X0.212500X-0.155000X-0.212500X0*%
%ADD20R,1.525000X0.700000*%
%ADD21RoundRect,0.250000X-0.450000X0.350000X-0.450000X-0.350000X0.450000X-0.350000X0.450000X0.350000X0*%
%ADD22R,1.150000X0.600000*%
%ADD23R,1.000000X1.700000*%
%ADD24R,0.700000X0.300000*%
G04 APERTURE END LIST*
D10*
%TO.C,R11*%
X154935000Y-84640007D03*
X156935000Y-84640007D03*
%TD*%
D11*
%TO.C,R4*%
X146335000Y-122965000D03*
X144335000Y-122965000D03*
%TD*%
D12*
%TO.C,R2*%
X167120000Y-109650000D03*
X167120000Y-111650000D03*
%TD*%
D13*
%TO.C,C16*%
X159285000Y-89065000D03*
X159285000Y-87930000D03*
%TD*%
D14*
%TO.C,R13*%
X164549600Y-82590021D03*
X164549600Y-83240007D03*
X164549600Y-83889993D03*
X164549600Y-84539979D03*
X161735000Y-84539979D03*
X161735000Y-83889993D03*
X161735000Y-83240007D03*
X161735000Y-82590021D03*
%TD*%
D11*
%TO.C,R12*%
X147647000Y-75110000D03*
X145647000Y-75110000D03*
%TD*%
D15*
%TO.C,IC2*%
X167185000Y-99590000D03*
X167835000Y-99590000D03*
X168485000Y-99590000D03*
X169135000Y-99590000D03*
X169135000Y-103990000D03*
X168485000Y-103990000D03*
X167835000Y-103990000D03*
X167185000Y-103990000D03*
%TD*%
D11*
%TO.C,Rfbb1*%
X146945000Y-105165000D03*
X144945000Y-105165000D03*
%TD*%
D16*
%TO.C,IC3*%
X156835000Y-90765000D03*
X154935000Y-90765000D03*
X154935000Y-88265000D03*
X155885000Y-88265000D03*
X156835000Y-88265000D03*
%TD*%
D11*
%TO.C,R10*%
X156935000Y-81240007D03*
X154935000Y-81240007D03*
%TD*%
D17*
%TO.C,C8*%
X145600000Y-120165000D03*
X146735000Y-120165000D03*
%TD*%
D13*
%TO.C,C3*%
X187532500Y-127752500D03*
X187532500Y-126617500D03*
%TD*%
D18*
%TO.C,C6*%
X147135000Y-109365000D03*
X146000000Y-109365000D03*
%TD*%
%TO.C,C5*%
X147197500Y-107685000D03*
X146062500Y-107685000D03*
%TD*%
D19*
%TO.C,C9*%
X167190000Y-95805000D03*
X167190000Y-96940000D03*
%TD*%
D13*
%TO.C,C1*%
X191935000Y-127732500D03*
X191935000Y-126597500D03*
%TD*%
D19*
%TO.C,C10*%
X169590000Y-95805000D03*
X169590000Y-96940000D03*
%TD*%
%TO.C,C15*%
X158122500Y-107495000D03*
X158122500Y-108630000D03*
%TD*%
D20*
%TO.C,Q1*%
X158447000Y-74060000D03*
X158447000Y-75330000D03*
X158447000Y-76600000D03*
X158447000Y-77870000D03*
X153023000Y-77870000D03*
X153023000Y-76600000D03*
X153023000Y-75330000D03*
X153023000Y-74060000D03*
%TD*%
D10*
%TO.C,R14*%
X145735000Y-78365000D03*
X147735000Y-78365000D03*
%TD*%
D21*
%TO.C,R8*%
X176135000Y-127965000D03*
X176135000Y-125965000D03*
%TD*%
D19*
%TO.C,C2*%
X145935000Y-96365000D03*
X145935000Y-97500000D03*
%TD*%
D12*
%TO.C,Rfbt1*%
X158535000Y-103565000D03*
X158535000Y-105565000D03*
%TD*%
D22*
%TO.C,IC1*%
X150635000Y-95415000D03*
X150635000Y-96365000D03*
X150635000Y-97315000D03*
X148035000Y-97315000D03*
X148035000Y-96365000D03*
X148035000Y-95415000D03*
%TD*%
D13*
%TO.C,C7*%
X146335000Y-113900000D03*
X146335000Y-112765000D03*
%TD*%
D21*
%TO.C,R1*%
X148935000Y-114765000D03*
X148935000Y-112765000D03*
%TD*%
D12*
%TO.C,R3*%
X170320000Y-109650000D03*
X170320000Y-111650000D03*
%TD*%
D23*
%TO.C,U2*%
X152070000Y-108450000D03*
D24*
X153120000Y-107700000D03*
X153120000Y-108200000D03*
X153120000Y-108700000D03*
X153120000Y-109200000D03*
X151020000Y-109200000D03*
X151020000Y-108700000D03*
X151020000Y-108200000D03*
X151020000Y-107700000D03*
%TD*%
D10*
%TO.C,R6*%
X141500000Y-151550000D03*
X143500000Y-151550000D03*
%TD*%
D19*
%TO.C,C4*%
X144135000Y-96365000D03*
X144135000Y-97500000D03*
%TD*%
D11*
%TO.C,R9*%
X153135000Y-105165000D03*
X151135000Y-105165000D03*
%TD*%
D12*
%TO.C,R7*%
X167935000Y-125965000D03*
X167935000Y-127965000D03*
%TD*%
M02*
