M48
; DRILL file {KiCad 9.0.3} date 2025-12-04T00:09:04+0100
; FORMAT={-:-/ absolute / inch / decimal}
; #@! TF.CreationDate,2025-12-04T00:09:04+01:00
; #@! TF.GenerationSoftware,Kicad,Pcbnew,9.0.3
; #@! TF.FileFunction,Plated,1,2,PTH
FMAT,2
INCH
; #@! TA.AperFunction,Plated,PTH,ViaDrill
T1C0.0118
; #@! TA.AperFunction,Plated,PTH,ComponentDrill
T2C0.0303
; #@! TA.AperFunction,Plated,PTH,ComponentDrill
T3C0.0315
; #@! TA.AperFunction,Plated,PTH,ComponentDrill
T4C0.0354
; #@! TA.AperFunction,Plated,PTH,ComponentDrill
T5C0.0394
; #@! TA.AperFunction,Plated,PTH,ComponentDrill
T6C0.0402
; #@! TA.AperFunction,Plated,PTH,ComponentDrill
T7C0.0472
; #@! TA.AperFunction,Plated,PTH,ComponentDrill
T8C0.0512
; #@! TA.AperFunction,Plated,PTH,ComponentDrill
T9C0.0984
; #@! TA.AperFunction,Plated,PTH,ComponentDrill
T10C0.1260
%
G90
G05
T1
X3.8906Y-2.1911
X3.8906Y-2.3911
X3.8906Y-2.5911
X3.8906Y-2.7911
X3.8906Y-2.9911
X3.8906Y-3.1911
X3.8906Y-3.3911
X3.8906Y-3.5911
X3.8906Y-3.7911
X3.8906Y-3.9911
X3.8906Y-4.1911
X3.8906Y-4.3911
X3.8906Y-4.5911
X3.8906Y-5.1911
X3.8906Y-5.3911
X3.8906Y-5.5911
X3.8906Y-5.7911
X3.8906Y-5.9911
X4.0906Y-1.9911
X4.0906Y-2.1911
X4.0906Y-2.3911
X4.0906Y-2.5911
X4.0906Y-2.7911
X4.0906Y-2.9911
X4.0906Y-3.1911
X4.0906Y-3.3911
X4.0906Y-3.5911
X4.0906Y-3.7911
X4.0906Y-3.9911
X4.0906Y-4.1911
X4.0906Y-4.3911
X4.0906Y-4.5911
X4.0906Y-4.7911
X4.0906Y-4.9911
X4.0906Y-5.9911
X4.2906Y-1.9911
X4.2906Y-2.1911
X4.2906Y-2.3911
X4.2906Y-2.5911
X4.2906Y-2.7911
X4.2906Y-2.9911
X4.2906Y-3.1911
X4.2906Y-3.3911
X4.2906Y-3.5911
X4.2906Y-3.7911
X4.2906Y-3.9911
X4.2906Y-4.1911
X4.2906Y-4.3911
X4.2906Y-4.5911
X4.2906Y-4.7911
X4.2906Y-4.9911
X4.2906Y-5.1911
X4.2906Y-5.3911
X4.2906Y-5.5911
X4.2906Y-5.9911
X4.4906Y-1.9911
X4.4906Y-2.1911
X4.4906Y-2.3911
X4.4906Y-2.5911
X4.4906Y-2.7911
X4.4906Y-2.9911
X4.4906Y-3.1911
X4.4906Y-3.3911
X4.4906Y-3.5911
X4.4906Y-3.7911
X4.4906Y-3.9911
X4.4906Y-4.1911
X4.4906Y-4.3911
X4.4906Y-4.5911
X4.4906Y-4.7911
X4.4906Y-4.9911
X4.4906Y-5.1911
X4.4906Y-5.3911
X4.4906Y-5.5911
X4.4906Y-5.7911
X4.4906Y-5.9911
X4.6906Y-1.9911
X4.6906Y-2.1911
X4.6906Y-2.3911
X4.6906Y-2.5911
X4.6906Y-2.7911
X4.6906Y-2.9911
X4.6906Y-3.1911
X4.6906Y-3.3911
X4.6906Y-3.7911
X4.6906Y-3.9911
X4.6906Y-4.1911
X4.6906Y-4.3911
X4.6906Y-4.5911
X4.6906Y-4.7911
X4.6906Y-4.9911
X4.6906Y-5.7911
X4.6906Y-5.9911
X4.7469Y-3.5307
X4.7469Y-3.7055
X4.8906Y-2.1911
X4.8906Y-2.3911
X4.8906Y-3.7911
X4.8906Y-3.9911
X4.8906Y-4.1911
X4.8906Y-4.3911
X4.8906Y-4.5911
X4.8906Y-5.7911
X4.8906Y-5.9911
X4.939Y-3.3634
X4.9406Y-2.9795
X4.9437Y-2.6224
X5.0783Y-4.6638
X5.0906Y-3.9911
X5.0906Y-4.1911
X5.0906Y-4.3911
X5.0906Y-5.7911
X5.0906Y-5.9911
X5.1077Y-3.7804
X5.1803Y-2.8476
X5.1815Y-3.1472
X5.237Y-2.6138
X5.2591Y-5.3945
X5.2906Y-2.1911
X5.2906Y-5.1911
X5.2906Y-5.5911
X5.2906Y-5.7911
X5.2906Y-5.9911
X5.3199Y-4.0372
X5.3213Y-5.015
X5.4151Y-2.9494
X5.4528Y-2.4472
X5.4535Y-2.6157
X5.4906Y-1.9911
X5.4906Y-2.1911
X5.4906Y-2.7911
X5.5142Y-5.1398
X5.5388Y-5.2928
X5.587Y-4.6165
X5.5906Y-4.6911
X5.6037Y-4.8411
X5.6157Y-5.648
X5.6241Y-4.3754
X5.6292Y-5.1904
X5.6469Y-3.0852
X5.6496Y-4.2598
X5.6541Y-4.1404
X5.6606Y-3.6866
X5.6687Y-4.2053
X5.6906Y-1.9911
X5.6906Y-2.1911
X5.6906Y-2.3911
X5.6906Y-2.5911
X5.6906Y-2.7911
X5.6906Y-3.3911
X5.6906Y-3.9911
X5.6906Y-4.4911
X5.7075Y-3.5358
X5.708Y-5.08
X5.708Y-5.38
X5.7297Y-4.6364
X5.7709Y-3.7366
X5.7898Y-4.5906
X5.7913Y-4.9213
X5.7945Y-5.0291
X5.8111Y-5.1378
X5.8276Y-3.6984
X5.8466Y-4.2848
X5.874Y-4.6354
X5.8872Y-4.2033
X5.8906Y-1.9911
X5.8906Y-2.1911
X5.8906Y-2.3911
X5.8906Y-2.5911
X5.8906Y-2.7911
X5.8906Y-3.3911
X5.8906Y-3.9911
X5.8906Y-5.9911
X5.9102Y-5.7862
X5.9266Y-2.9671
X5.9346Y-5.5724
X5.9437Y-4.374
X5.9567Y-4.915
X5.9906Y-3.5911
X6.0132Y-3.7939
X6.032Y-3.2687
X6.0555Y-5.0299
X6.0709Y-3.815
X6.0906Y-1.9911
X6.0906Y-2.1911
X6.0906Y-2.3911
X6.0906Y-2.5911
X6.0906Y-2.7911
X6.0906Y-5.4411
X6.0913Y-5.1906
X6.1067Y-5.9921
X6.1229Y-3.7341
X6.1323Y-4.1579
X6.1417Y-3.3923
X6.1839Y-5.763
X6.1965Y-4.4984
X6.1976Y-5.3531
X6.2272Y-3.7803
X6.232Y-4.3136
X6.2339Y-3.9583
X6.2406Y-5.2411
X6.2544Y-4.6944
X6.2888Y-4.42
X6.2906Y-1.9911
X6.2906Y-2.1911
X6.2906Y-2.3911
X6.2906Y-2.5911
X6.2906Y-2.7911
X6.2906Y-5.9911
X6.2922Y-3.1644
X6.3185Y-3.2776
X6.3445Y-3.502
X6.3445Y-3.9343
X6.3567Y-4.7425
X6.413Y-3.9295
X6.413Y-4.8236
X6.4229Y-3.1065
X6.46Y-3.6339
X6.4699Y-3.9232
X6.4778Y-5.1929
X6.4815Y-4.7457
X6.4906Y-1.9911
X6.4906Y-2.1911
X6.4906Y-2.3911
X6.4906Y-2.5911
X6.4906Y-2.7911
X6.4906Y-5.9911
X6.4914Y-5.747
X6.4961Y-5.0276
X6.5021Y-5.4258
X6.5407Y-4.66
X6.5554Y-4.9846
X6.5749Y-3.175
X6.5811Y-4.461
X6.5898Y-3.6583
X6.6079Y-5.5846
X6.6171Y-4.1766
X6.62Y-3.4785
X6.62Y-5.512
X6.6406Y-4.7911
X6.6638Y-5.9902
X6.676Y-4.161
X6.6906Y-1.9911
X6.6906Y-2.1911
X6.6906Y-2.3911
X6.6906Y-2.5911
X6.6906Y-2.7911
X6.6906Y-2.9911
X6.6906Y-4.5911
X6.7055Y-4.4768
X6.7165Y-3.8587
X6.7417Y-5.1709
X6.7505Y-4.9057
X6.7685Y-4.0972
X6.7748Y-3.9193
X6.7898Y-3.4785
X6.7958Y-5.3352
X6.8281Y-5.1022
X6.8504Y-5.4238
X6.8906Y-1.9911
X6.8906Y-2.1911
X6.8906Y-2.3911
X6.8906Y-2.5911
X6.8906Y-2.7911
X6.8906Y-2.9911
X6.8906Y-3.1911
X6.8906Y-4.3911
X6.8906Y-4.5911
X6.8906Y-4.7911
X6.8906Y-5.6991
X6.8906Y-5.9911
X6.8913Y-3.9906
X6.8913Y-4.1906
X6.9434Y-3.4785
X6.9977Y-3.8427
X7.0492Y-5.4114
X7.08Y-4.9016
X7.08Y-5.02
X7.08Y-5.512
X7.0906Y-1.9911
X7.0906Y-2.1911
X7.0906Y-2.3911
X7.0906Y-2.5911
X7.0906Y-2.7911
X7.0906Y-2.9911
X7.0906Y-3.1911
X7.0906Y-3.3911
X7.0906Y-4.3911
X7.0906Y-4.5911
X7.0906Y-4.7911
X7.0906Y-5.9911
X7.0913Y-4.1906
X7.1516Y-3.8427
X7.1705Y-5.2953
X7.1929Y-5.1315
X7.22Y-5.46
X7.2573Y-4.9
X7.2573Y-5.0335
X7.2906Y-1.9911
X7.2906Y-2.1911
X7.2906Y-2.3911
X7.2906Y-2.5911
X7.2906Y-2.7911
X7.2906Y-2.9911
X7.2906Y-3.1911
X7.2906Y-3.3911
X7.2906Y-3.5911
X7.2906Y-5.9911
X7.3072Y-3.8427
X7.358Y-4.91
X7.3634Y-4.3911
X7.3686Y-4.7545
X7.3843Y-5.0823
X7.4906Y-1.9911
X7.4906Y-2.1911
X7.4906Y-2.3911
X7.4906Y-2.9911
X7.4906Y-3.1911
X7.4906Y-3.3911
X7.4906Y-3.5911
X7.4906Y-3.7911
X7.4906Y-5.9911
X7.5016Y-5.4421
X7.5453Y-4.7545
X7.5461Y-4.3911
X7.5563Y-5.0811
X7.5899Y-5.1844
X7.6697Y-4.7547
X7.6736Y-4.3911
X7.6776Y-5.337
X7.6906Y-1.9911
X7.6906Y-2.1911
X7.6906Y-2.3911
X7.6906Y-2.5911
X7.6906Y-3.1911
X7.6906Y-3.3911
X7.6906Y-3.5911
X7.6906Y-3.7911
X7.6906Y-5.9911
X7.7346Y-5.5882
X7.7906Y-5.8411
X7.8006Y-5.6364
X7.8661Y-5.0795
X7.8906Y-1.9911
X7.8906Y-2.1911
X7.8906Y-2.3911
X7.8906Y-2.5911
X7.8906Y-2.7911
X7.8906Y-5.9911
X8.0064Y-5.4774
X8.0307Y-5.7622
T2
X7.3581Y-5.2585
X7.5581Y-5.2585
X7.7581Y-5.2585
X7.9581Y-5.2585
T3
X5.401Y-5.3766
X5.5388Y-5.3766
T4
X6.6116Y-5.2348
X6.6116Y-5.3348
X6.9344Y-5.2348
X6.9344Y-5.3348
T5
X5.4699Y-5.723
X5.4699Y-5.823
X5.7691Y-5.6207
X5.7691Y-5.7207
X5.7691Y-5.8207
X6.0762Y-5.6207
X6.0762Y-5.7207
X6.0762Y-5.8207
X6.3833Y-5.6254
X6.3833Y-5.7254
X6.3833Y-5.8254
X6.6982Y-5.6333
X6.6982Y-5.7333
X6.6982Y-5.8333
X7.0053Y-5.6356
X7.0053Y-5.7356
X7.0053Y-5.8356
X7.3203Y-5.6333
X7.3203Y-5.7333
X7.3203Y-5.8333
X7.6352Y-5.6246
X7.6352Y-5.7246
X7.6352Y-5.8246
X7.9187Y-5.6325
X7.9187Y-5.7325
X7.9187Y-5.8325
T6
X5.396Y-3.1372
X5.396Y-3.2372
X5.396Y-3.3372
X5.396Y-3.4372
X5.396Y-3.5372
X5.396Y-3.6372
X5.396Y-3.7372
X5.396Y-3.8372
X5.396Y-3.9372
X5.396Y-4.0372
X5.396Y-4.1372
X5.396Y-4.2372
X5.396Y-4.3372
X5.396Y-4.4372
X5.396Y-4.5372
X5.396Y-4.6372
X5.396Y-4.7372
X5.396Y-4.8372
X5.396Y-4.9372
X5.496Y-3.1372
X5.496Y-3.2372
X5.496Y-3.3372
X5.496Y-3.4372
X5.496Y-3.5372
X5.496Y-3.6372
X5.496Y-3.7372
X5.496Y-3.8372
X5.496Y-3.9372
X5.496Y-4.0372
X5.496Y-4.1372
X5.496Y-4.2372
X5.496Y-4.3372
X5.496Y-4.4372
X5.496Y-4.5372
X5.496Y-4.6372
X5.496Y-4.7372
X5.496Y-4.8372
X5.496Y-4.9372
X7.796Y-3.1372
X7.796Y-3.2372
X7.796Y-3.3372
X7.796Y-3.4372
X7.796Y-3.5372
X7.796Y-3.6372
X7.796Y-3.7372
X7.796Y-3.8372
X7.796Y-3.9372
X7.796Y-4.0372
X7.796Y-4.1372
X7.796Y-4.2372
X7.796Y-4.3372
X7.796Y-4.4372
X7.796Y-4.5372
X7.796Y-4.6372
X7.796Y-4.7372
X7.796Y-4.8372
X7.796Y-4.9372
X7.896Y-3.1372
X7.896Y-3.2372
X7.896Y-3.3372
X7.896Y-3.4372
X7.896Y-3.5372
X7.896Y-3.6372
X7.896Y-3.7372
X7.896Y-3.8372
X7.896Y-3.9372
X7.896Y-4.0372
X7.896Y-4.1372
X7.896Y-4.2372
X7.896Y-4.3372
X7.896Y-4.4372
X7.896Y-4.5372
X7.896Y-4.6372
X7.896Y-4.7372
X7.896Y-4.8372
X7.896Y-4.9372
T7
X5.1077Y-2.1994
X5.1077Y-2.2994
X5.1077Y-2.3994
X5.1077Y-2.4994
X5.1077Y-2.5994
X5.1077Y-2.6994
X5.1077Y-2.7994
X5.1077Y-2.8994
X5.1077Y-2.9994
X5.1077Y-3.0994
X5.1077Y-3.1994
X5.1077Y-3.2994
X5.1077Y-3.3994
X5.1077Y-3.4994
X5.1077Y-3.5994
X5.1077Y-3.6994
T8
X4.7094Y-5.1736
X4.7094Y-5.5736
X4.9094Y-5.3736
X5.1094Y-5.1736
X5.1094Y-5.5736
T9
X3.8872Y-1.9829
X3.8872Y-4.9356
X5.1077Y-1.9829
X5.1077Y-4.9356
T10
X3.6417Y-1.7717
X3.6417Y-6.1024
X8.1693Y-1.7717
X8.1693Y-6.1024
M30
