%TF.GenerationSoftware,KiCad,Pcbnew,9.0.3*%
%TF.CreationDate,2025-12-04T00:09:04+01:00*%
%TF.ProjectId,power_consumbtion_driver,706f7765-725f-4636-9f6e-73756d627469,rev?*%
%TF.SameCoordinates,Original*%
%TF.FileFunction,Soldermask,Bot*%
%TF.FilePolarity,Negative*%
%FSLAX46Y46*%
G04 Gerber Fmt 4.6, Leading zero omitted, Abs format (unit mm)*
G04 Created by KiCad (PCBNEW 9.0.3) date 2025-12-04 00:09:04*
%MOMM*%
%LPD*%
G01*
G04 APERTURE LIST*
G04 Aperture macros list*
%AMRoundRect*
0 Rectangle with rounded corners*
0 $1 Rounding radius*
0 $2 $3 $4 $5 $6 $7 $8 $9 X,Y pos of 4 corners*
0 Add a 4 corners polygon primitive as box body*
4,1,4,$2,$3,$4,$5,$6,$7,$8,$9,$2,$3,0*
0 Add four circle primitives for the rounded corners*
1,1,$1+$1,$2,$3*
1,1,$1+$1,$4,$5*
1,1,$1+$1,$6,$7*
1,1,$1+$1,$8,$9*
0 Add four rect primitives between the rounded corners*
20,1,$1+$1,$2,$3,$4,$5,0*
20,1,$1+$1,$4,$5,$6,$7,0*
20,1,$1+$1,$6,$7,$8,$9,0*
20,1,$1+$1,$8,$9,$2,$3,0*%
G04 Aperture macros list end*
%ADD10RoundRect,0.250000X-0.350000X-0.450000X0.350000X-0.450000X0.350000X0.450000X-0.350000X0.450000X0*%
%ADD11RoundRect,0.155000X0.212500X0.155000X-0.212500X0.155000X-0.212500X-0.155000X0.212500X-0.155000X0*%
%ADD12RoundRect,0.155000X-0.212500X-0.155000X0.212500X-0.155000X0.212500X0.155000X-0.212500X0.155000X0*%
%ADD13C,1.700000*%
%ADD14R,1.700000X1.700000*%
%ADD15C,1.320000*%
%ADD16O,2.600000X1.800000*%
%ADD17R,2.600000X1.800000*%
%ADD18C,3.000000*%
%ADD19C,1.734000*%
%ADD20RoundRect,0.102000X-0.765000X-0.765000X0.765000X-0.765000X0.765000X0.765000X-0.765000X0.765000X0*%
%ADD21C,1.600000*%
%ADD22C,1.800000*%
%ADD23R,1.800000X1.800000*%
%ADD24C,1.950000*%
%ADD25R,1.950000X1.950000*%
%ADD26C,5.500000*%
G04 APERTURE END LIST*
D10*
%TO.C,R5*%
X125735000Y-91365000D03*
X123735000Y-91365000D03*
%TD*%
D11*
%TO.C,C13*%
X120567500Y-90965000D03*
X121702500Y-90965000D03*
%TD*%
%TO.C,C14*%
X120567500Y-92935000D03*
X121702500Y-92935000D03*
%TD*%
D12*
%TO.C,C12*%
X138535000Y-63765000D03*
X137400000Y-63765000D03*
%TD*%
%TO.C,C11*%
X138535000Y-65165000D03*
X137400000Y-65165000D03*
%TD*%
D13*
%TO.C,J9*%
X146535000Y-147845000D03*
X146535000Y-145305000D03*
D14*
X146535000Y-142765000D03*
%TD*%
D13*
%TO.C,J7*%
X201135000Y-148145000D03*
X201135000Y-145605000D03*
D14*
X201135000Y-143065000D03*
%TD*%
D15*
%TO.C,K1*%
X202135000Y-133565000D03*
X197055000Y-133565000D03*
X191975000Y-133565000D03*
X186895000Y-133565000D03*
%TD*%
D13*
%TO.C,J3*%
X177935000Y-143145000D03*
X177935000Y-145685000D03*
D14*
X177935000Y-148225000D03*
%TD*%
D16*
%TO.C,DS1*%
X129735000Y-93964100D03*
X129735000Y-91424100D03*
X129735000Y-88884100D03*
X129735000Y-86344100D03*
X129735000Y-83804100D03*
X129735000Y-81264100D03*
X129735000Y-78724100D03*
X129735000Y-76184100D03*
X129735000Y-73644100D03*
X129735000Y-71104100D03*
X129735000Y-68564100D03*
X129735000Y-66024100D03*
X129735000Y-63484100D03*
X129735000Y-60944100D03*
X129735000Y-58404100D03*
D17*
X129735000Y-55864100D03*
D18*
X129735000Y-125364100D03*
X98734300Y-125363580D03*
X98734300Y-50365000D03*
X129735000Y-50365000D03*
%TD*%
D19*
%TO.C,U1*%
X200557500Y-125405000D03*
X198017500Y-125405000D03*
X200557500Y-122865000D03*
X198017500Y-122865000D03*
X200557500Y-120325000D03*
X198017500Y-120325000D03*
X200557500Y-117785000D03*
X198017500Y-117785000D03*
X200557500Y-115245000D03*
X198017500Y-115245000D03*
X200557500Y-112705000D03*
X198017500Y-112705000D03*
X200557500Y-110165000D03*
X198017500Y-110165000D03*
X200557500Y-107625000D03*
X198017500Y-107625000D03*
X200557500Y-105085000D03*
X198017500Y-105085000D03*
X200557500Y-102545000D03*
X198017500Y-102545000D03*
X200557500Y-100005000D03*
X198017500Y-100005000D03*
X200557500Y-97465000D03*
X198017500Y-97465000D03*
X200557500Y-94925000D03*
X198017500Y-94925000D03*
X200557500Y-92385000D03*
X198017500Y-92385000D03*
X200557500Y-89845000D03*
X198017500Y-89845000D03*
X200557500Y-87305000D03*
X198017500Y-87305000D03*
X200557500Y-84765000D03*
X198017500Y-84765000D03*
X200557500Y-82225000D03*
X198017500Y-82225000D03*
X200557500Y-79685000D03*
D20*
X198017500Y-79685000D03*
D19*
X139597500Y-125405000D03*
X137057500Y-125405000D03*
X139597500Y-122865000D03*
X137057500Y-122865000D03*
X139597500Y-120325000D03*
X137057500Y-120325000D03*
X139597500Y-117785000D03*
X137057500Y-117785000D03*
X139597500Y-115245000D03*
X137057500Y-115245000D03*
X139597500Y-112705000D03*
X137057500Y-112705000D03*
X139597500Y-110165000D03*
X137057500Y-110165000D03*
X139597500Y-107625000D03*
X137057500Y-107625000D03*
X139597500Y-105085000D03*
X137057500Y-105085000D03*
X139597500Y-102545000D03*
X137057500Y-102545000D03*
X139597500Y-100005000D03*
X137057500Y-100005000D03*
X139597500Y-97465000D03*
X137057500Y-97465000D03*
X139597500Y-94925000D03*
X137057500Y-94925000D03*
X139597500Y-92385000D03*
X137057500Y-92385000D03*
X139597500Y-89845000D03*
X137057500Y-89845000D03*
X139597500Y-87305000D03*
X137057500Y-87305000D03*
X139597500Y-84765000D03*
X137057500Y-84765000D03*
X139597500Y-82225000D03*
X137057500Y-82225000D03*
X139597500Y-79685000D03*
D20*
X137057500Y-79685000D03*
%TD*%
D13*
%TO.C,J2*%
X162135000Y-147965000D03*
X162135000Y-145425000D03*
D14*
X162135000Y-142885000D03*
%TD*%
D21*
%TO.C,SupCap1*%
X140685000Y-136565000D03*
X137185000Y-136565000D03*
%TD*%
D13*
%TO.C,J4*%
X185935000Y-148165000D03*
X185935000Y-145625000D03*
D14*
X185935000Y-143085000D03*
%TD*%
D13*
%TO.C,J1*%
X170135000Y-143085000D03*
X170135000Y-145625000D03*
D14*
X170135000Y-148165000D03*
%TD*%
D13*
%TO.C,J6*%
X154335000Y-142765000D03*
X154335000Y-145305000D03*
D14*
X154335000Y-147845000D03*
%TD*%
D22*
%TO.C,D2*%
X176135000Y-135505000D03*
D23*
X176135000Y-132965000D03*
%TD*%
D13*
%TO.C,J10*%
X138935000Y-147905000D03*
D14*
X138935000Y-145365000D03*
%TD*%
D24*
%TO.C,J11*%
X119620000Y-131410000D03*
X129780000Y-131410000D03*
X129780000Y-141570000D03*
X119620000Y-141570000D03*
D25*
X124700000Y-136490000D03*
%TD*%
D22*
%TO.C,D1*%
X167935000Y-135505000D03*
D23*
X167935000Y-132965000D03*
%TD*%
D13*
%TO.C,J8*%
X193935000Y-142865000D03*
X193935000Y-145405000D03*
D14*
X193935000Y-147945000D03*
%TD*%
D26*
%TO.C,MH1*%
X92500000Y-45000000D03*
%TD*%
%TO.C,MH2*%
X207500000Y-45000000D03*
%TD*%
%TO.C,MH3*%
X207500000Y-155000000D03*
%TD*%
%TO.C,MH4*%
X92500000Y-155000000D03*
%TD*%
M02*
