%TF.GenerationSoftware,KiCad,Pcbnew,9.0.3*%
%TF.CreationDate,2025-12-04T00:09:04+01:00*%
%TF.ProjectId,power_consumbtion_driver,706f7765-725f-4636-9f6e-73756d627469,rev?*%
%TF.SameCoordinates,Original*%
%TF.FileFunction,Legend,Bot*%
%TF.FilePolarity,Positive*%
%FSLAX46Y46*%
G04 Gerber Fmt 4.6, Leading zero omitted, Abs format (unit mm)*
G04 Created by KiCad (PCBNEW 9.0.3) date 2025-12-04 00:09:04*
%MOMM*%
%LPD*%
G01*
G04 APERTURE LIST*
G04 Aperture macros list*
%AMRoundRect*
0 Rectangle with rounded corners*
0 $1 Rounding radius*
0 $2 $3 $4 $5 $6 $7 $8 $9 X,Y pos of 4 corners*
0 Add a 4 corners polygon primitive as box body*
4,1,4,$2,$3,$4,$5,$6,$7,$8,$9,$2,$3,0*
0 Add four circle primitives for the rounded corners*
1,1,$1+$1,$2,$3*
1,1,$1+$1,$4,$5*
1,1,$1+$1,$6,$7*
1,1,$1+$1,$8,$9*
0 Add four rect primitives between the rounded corners*
20,1,$1+$1,$2,$3,$4,$5,0*
20,1,$1+$1,$4,$5,$6,$7,0*
20,1,$1+$1,$6,$7,$8,$9,0*
20,1,$1+$1,$8,$9,$2,$3,0*%
G04 Aperture macros list end*
%ADD10C,0.150000*%
%ADD11C,0.120000*%
%ADD12RoundRect,0.250000X-0.350000X-0.450000X0.350000X-0.450000X0.350000X0.450000X-0.350000X0.450000X0*%
%ADD13RoundRect,0.155000X0.212500X0.155000X-0.212500X0.155000X-0.212500X-0.155000X0.212500X-0.155000X0*%
%ADD14RoundRect,0.155000X-0.212500X-0.155000X0.212500X-0.155000X0.212500X0.155000X-0.212500X0.155000X0*%
%ADD15C,1.700000*%
%ADD16R,1.700000X1.700000*%
%ADD17C,1.320000*%
%ADD18O,2.600000X1.800000*%
%ADD19R,2.600000X1.800000*%
%ADD20C,3.000000*%
%ADD21C,1.734000*%
%ADD22RoundRect,0.102000X-0.765000X-0.765000X0.765000X-0.765000X0.765000X0.765000X-0.765000X0.765000X0*%
%ADD23C,1.600000*%
%ADD24C,1.800000*%
%ADD25R,1.800000X1.800000*%
%ADD26C,1.950000*%
%ADD27R,1.950000X1.950000*%
%ADD28C,5.500000*%
G04 APERTURE END LIST*
D10*
X124949166Y-93729819D02*
X125282499Y-93253628D01*
X125520594Y-93729819D02*
X125520594Y-92729819D01*
X125520594Y-92729819D02*
X125139642Y-92729819D01*
X125139642Y-92729819D02*
X125044404Y-92777438D01*
X125044404Y-92777438D02*
X124996785Y-92825057D01*
X124996785Y-92825057D02*
X124949166Y-92920295D01*
X124949166Y-92920295D02*
X124949166Y-93063152D01*
X124949166Y-93063152D02*
X124996785Y-93158390D01*
X124996785Y-93158390D02*
X125044404Y-93206009D01*
X125044404Y-93206009D02*
X125139642Y-93253628D01*
X125139642Y-93253628D02*
X125520594Y-93253628D01*
X124044404Y-92729819D02*
X124520594Y-92729819D01*
X124520594Y-92729819D02*
X124568213Y-93206009D01*
X124568213Y-93206009D02*
X124520594Y-93158390D01*
X124520594Y-93158390D02*
X124425356Y-93110771D01*
X124425356Y-93110771D02*
X124187261Y-93110771D01*
X124187261Y-93110771D02*
X124092023Y-93158390D01*
X124092023Y-93158390D02*
X124044404Y-93206009D01*
X124044404Y-93206009D02*
X123996785Y-93301247D01*
X123996785Y-93301247D02*
X123996785Y-93539342D01*
X123996785Y-93539342D02*
X124044404Y-93634580D01*
X124044404Y-93634580D02*
X124092023Y-93682200D01*
X124092023Y-93682200D02*
X124187261Y-93729819D01*
X124187261Y-93729819D02*
X124425356Y-93729819D01*
X124425356Y-93729819D02*
X124520594Y-93682200D01*
X124520594Y-93682200D02*
X124568213Y-93634580D01*
X119302857Y-91349580D02*
X119350476Y-91397200D01*
X119350476Y-91397200D02*
X119493333Y-91444819D01*
X119493333Y-91444819D02*
X119588571Y-91444819D01*
X119588571Y-91444819D02*
X119731428Y-91397200D01*
X119731428Y-91397200D02*
X119826666Y-91301961D01*
X119826666Y-91301961D02*
X119874285Y-91206723D01*
X119874285Y-91206723D02*
X119921904Y-91016247D01*
X119921904Y-91016247D02*
X119921904Y-90873390D01*
X119921904Y-90873390D02*
X119874285Y-90682914D01*
X119874285Y-90682914D02*
X119826666Y-90587676D01*
X119826666Y-90587676D02*
X119731428Y-90492438D01*
X119731428Y-90492438D02*
X119588571Y-90444819D01*
X119588571Y-90444819D02*
X119493333Y-90444819D01*
X119493333Y-90444819D02*
X119350476Y-90492438D01*
X119350476Y-90492438D02*
X119302857Y-90540057D01*
X118350476Y-91444819D02*
X118921904Y-91444819D01*
X118636190Y-91444819D02*
X118636190Y-90444819D01*
X118636190Y-90444819D02*
X118731428Y-90587676D01*
X118731428Y-90587676D02*
X118826666Y-90682914D01*
X118826666Y-90682914D02*
X118921904Y-90730533D01*
X118017142Y-90444819D02*
X117398095Y-90444819D01*
X117398095Y-90444819D02*
X117731428Y-90825771D01*
X117731428Y-90825771D02*
X117588571Y-90825771D01*
X117588571Y-90825771D02*
X117493333Y-90873390D01*
X117493333Y-90873390D02*
X117445714Y-90921009D01*
X117445714Y-90921009D02*
X117398095Y-91016247D01*
X117398095Y-91016247D02*
X117398095Y-91254342D01*
X117398095Y-91254342D02*
X117445714Y-91349580D01*
X117445714Y-91349580D02*
X117493333Y-91397200D01*
X117493333Y-91397200D02*
X117588571Y-91444819D01*
X117588571Y-91444819D02*
X117874285Y-91444819D01*
X117874285Y-91444819D02*
X117969523Y-91397200D01*
X117969523Y-91397200D02*
X118017142Y-91349580D01*
X119212857Y-93289580D02*
X119260476Y-93337200D01*
X119260476Y-93337200D02*
X119403333Y-93384819D01*
X119403333Y-93384819D02*
X119498571Y-93384819D01*
X119498571Y-93384819D02*
X119641428Y-93337200D01*
X119641428Y-93337200D02*
X119736666Y-93241961D01*
X119736666Y-93241961D02*
X119784285Y-93146723D01*
X119784285Y-93146723D02*
X119831904Y-92956247D01*
X119831904Y-92956247D02*
X119831904Y-92813390D01*
X119831904Y-92813390D02*
X119784285Y-92622914D01*
X119784285Y-92622914D02*
X119736666Y-92527676D01*
X119736666Y-92527676D02*
X119641428Y-92432438D01*
X119641428Y-92432438D02*
X119498571Y-92384819D01*
X119498571Y-92384819D02*
X119403333Y-92384819D01*
X119403333Y-92384819D02*
X119260476Y-92432438D01*
X119260476Y-92432438D02*
X119212857Y-92480057D01*
X118260476Y-93384819D02*
X118831904Y-93384819D01*
X118546190Y-93384819D02*
X118546190Y-92384819D01*
X118546190Y-92384819D02*
X118641428Y-92527676D01*
X118641428Y-92527676D02*
X118736666Y-92622914D01*
X118736666Y-92622914D02*
X118831904Y-92670533D01*
X117403333Y-92718152D02*
X117403333Y-93384819D01*
X117641428Y-92337200D02*
X117879523Y-93051485D01*
X117879523Y-93051485D02*
X117260476Y-93051485D01*
X141572857Y-63929580D02*
X141620476Y-63977200D01*
X141620476Y-63977200D02*
X141763333Y-64024819D01*
X141763333Y-64024819D02*
X141858571Y-64024819D01*
X141858571Y-64024819D02*
X142001428Y-63977200D01*
X142001428Y-63977200D02*
X142096666Y-63881961D01*
X142096666Y-63881961D02*
X142144285Y-63786723D01*
X142144285Y-63786723D02*
X142191904Y-63596247D01*
X142191904Y-63596247D02*
X142191904Y-63453390D01*
X142191904Y-63453390D02*
X142144285Y-63262914D01*
X142144285Y-63262914D02*
X142096666Y-63167676D01*
X142096666Y-63167676D02*
X142001428Y-63072438D01*
X142001428Y-63072438D02*
X141858571Y-63024819D01*
X141858571Y-63024819D02*
X141763333Y-63024819D01*
X141763333Y-63024819D02*
X141620476Y-63072438D01*
X141620476Y-63072438D02*
X141572857Y-63120057D01*
X140620476Y-64024819D02*
X141191904Y-64024819D01*
X140906190Y-64024819D02*
X140906190Y-63024819D01*
X140906190Y-63024819D02*
X141001428Y-63167676D01*
X141001428Y-63167676D02*
X141096666Y-63262914D01*
X141096666Y-63262914D02*
X141191904Y-63310533D01*
X140239523Y-63120057D02*
X140191904Y-63072438D01*
X140191904Y-63072438D02*
X140096666Y-63024819D01*
X140096666Y-63024819D02*
X139858571Y-63024819D01*
X139858571Y-63024819D02*
X139763333Y-63072438D01*
X139763333Y-63072438D02*
X139715714Y-63120057D01*
X139715714Y-63120057D02*
X139668095Y-63215295D01*
X139668095Y-63215295D02*
X139668095Y-63310533D01*
X139668095Y-63310533D02*
X139715714Y-63453390D01*
X139715714Y-63453390D02*
X140287142Y-64024819D01*
X140287142Y-64024819D02*
X139668095Y-64024819D01*
X141442857Y-65599580D02*
X141490476Y-65647200D01*
X141490476Y-65647200D02*
X141633333Y-65694819D01*
X141633333Y-65694819D02*
X141728571Y-65694819D01*
X141728571Y-65694819D02*
X141871428Y-65647200D01*
X141871428Y-65647200D02*
X141966666Y-65551961D01*
X141966666Y-65551961D02*
X142014285Y-65456723D01*
X142014285Y-65456723D02*
X142061904Y-65266247D01*
X142061904Y-65266247D02*
X142061904Y-65123390D01*
X142061904Y-65123390D02*
X142014285Y-64932914D01*
X142014285Y-64932914D02*
X141966666Y-64837676D01*
X141966666Y-64837676D02*
X141871428Y-64742438D01*
X141871428Y-64742438D02*
X141728571Y-64694819D01*
X141728571Y-64694819D02*
X141633333Y-64694819D01*
X141633333Y-64694819D02*
X141490476Y-64742438D01*
X141490476Y-64742438D02*
X141442857Y-64790057D01*
X140490476Y-65694819D02*
X141061904Y-65694819D01*
X140776190Y-65694819D02*
X140776190Y-64694819D01*
X140776190Y-64694819D02*
X140871428Y-64837676D01*
X140871428Y-64837676D02*
X140966666Y-64932914D01*
X140966666Y-64932914D02*
X141061904Y-64980533D01*
X139538095Y-65694819D02*
X140109523Y-65694819D01*
X139823809Y-65694819D02*
X139823809Y-64694819D01*
X139823809Y-64694819D02*
X139919047Y-64837676D01*
X139919047Y-64837676D02*
X140014285Y-64932914D01*
X140014285Y-64932914D02*
X140109523Y-64980533D01*
D11*
%TO.C,R5*%
X124507936Y-92100000D02*
X124962064Y-92100000D01*
X124507936Y-90630000D02*
X124962064Y-90630000D01*
%TO.C,C13*%
X121250835Y-91325000D02*
X121019165Y-91325000D01*
X121250835Y-90605000D02*
X121019165Y-90605000D01*
%TO.C,C14*%
X121250835Y-93295000D02*
X121019165Y-93295000D01*
X121250835Y-92575000D02*
X121019165Y-92575000D01*
%TO.C,C12*%
X137851665Y-64125000D02*
X138083335Y-64125000D01*
X137851665Y-63405000D02*
X138083335Y-63405000D01*
%TO.C,C11*%
X137851665Y-65525000D02*
X138083335Y-65525000D01*
X137851665Y-64805000D02*
X138083335Y-64805000D01*
%TD*%
%LPC*%
D12*
%TO.C,R5*%
X125735000Y-91365000D03*
X123735000Y-91365000D03*
%TD*%
D13*
%TO.C,C13*%
X120567500Y-90965000D03*
X121702500Y-90965000D03*
%TD*%
%TO.C,C14*%
X120567500Y-92935000D03*
X121702500Y-92935000D03*
%TD*%
D14*
%TO.C,C12*%
X138535000Y-63765000D03*
X137400000Y-63765000D03*
%TD*%
%TO.C,C11*%
X138535000Y-65165000D03*
X137400000Y-65165000D03*
%TD*%
D15*
%TO.C,J9*%
X146535000Y-147845000D03*
X146535000Y-145305000D03*
D16*
X146535000Y-142765000D03*
%TD*%
D15*
%TO.C,J7*%
X201135000Y-148145000D03*
X201135000Y-145605000D03*
D16*
X201135000Y-143065000D03*
%TD*%
D17*
%TO.C,K1*%
X202135000Y-133565000D03*
X197055000Y-133565000D03*
X191975000Y-133565000D03*
X186895000Y-133565000D03*
%TD*%
D15*
%TO.C,J3*%
X177935000Y-143145000D03*
X177935000Y-145685000D03*
D16*
X177935000Y-148225000D03*
%TD*%
D18*
%TO.C,DS1*%
X129735000Y-93964100D03*
X129735000Y-91424100D03*
X129735000Y-88884100D03*
X129735000Y-86344100D03*
X129735000Y-83804100D03*
X129735000Y-81264100D03*
X129735000Y-78724100D03*
X129735000Y-76184100D03*
X129735000Y-73644100D03*
X129735000Y-71104100D03*
X129735000Y-68564100D03*
X129735000Y-66024100D03*
X129735000Y-63484100D03*
X129735000Y-60944100D03*
X129735000Y-58404100D03*
D19*
X129735000Y-55864100D03*
D20*
X129735000Y-125364100D03*
X98734300Y-125363580D03*
X98734300Y-50365000D03*
X129735000Y-50365000D03*
%TD*%
D21*
%TO.C,U1*%
X200557500Y-125405000D03*
X198017500Y-125405000D03*
X200557500Y-122865000D03*
X198017500Y-122865000D03*
X200557500Y-120325000D03*
X198017500Y-120325000D03*
X200557500Y-117785000D03*
X198017500Y-117785000D03*
X200557500Y-115245000D03*
X198017500Y-115245000D03*
X200557500Y-112705000D03*
X198017500Y-112705000D03*
X200557500Y-110165000D03*
X198017500Y-110165000D03*
X200557500Y-107625000D03*
X198017500Y-107625000D03*
X200557500Y-105085000D03*
X198017500Y-105085000D03*
X200557500Y-102545000D03*
X198017500Y-102545000D03*
X200557500Y-100005000D03*
X198017500Y-100005000D03*
X200557500Y-97465000D03*
X198017500Y-97465000D03*
X200557500Y-94925000D03*
X198017500Y-94925000D03*
X200557500Y-92385000D03*
X198017500Y-92385000D03*
X200557500Y-89845000D03*
X198017500Y-89845000D03*
X200557500Y-87305000D03*
X198017500Y-87305000D03*
X200557500Y-84765000D03*
X198017500Y-84765000D03*
X200557500Y-82225000D03*
X198017500Y-82225000D03*
X200557500Y-79685000D03*
D22*
X198017500Y-79685000D03*
D21*
X139597500Y-125405000D03*
X137057500Y-125405000D03*
X139597500Y-122865000D03*
X137057500Y-122865000D03*
X139597500Y-120325000D03*
X137057500Y-120325000D03*
X139597500Y-117785000D03*
X137057500Y-117785000D03*
X139597500Y-115245000D03*
X137057500Y-115245000D03*
X139597500Y-112705000D03*
X137057500Y-112705000D03*
X139597500Y-110165000D03*
X137057500Y-110165000D03*
X139597500Y-107625000D03*
X137057500Y-107625000D03*
X139597500Y-105085000D03*
X137057500Y-105085000D03*
X139597500Y-102545000D03*
X137057500Y-102545000D03*
X139597500Y-100005000D03*
X137057500Y-100005000D03*
X139597500Y-97465000D03*
X137057500Y-97465000D03*
X139597500Y-94925000D03*
X137057500Y-94925000D03*
X139597500Y-92385000D03*
X137057500Y-92385000D03*
X139597500Y-89845000D03*
X137057500Y-89845000D03*
X139597500Y-87305000D03*
X137057500Y-87305000D03*
X139597500Y-84765000D03*
X137057500Y-84765000D03*
X139597500Y-82225000D03*
X137057500Y-82225000D03*
X139597500Y-79685000D03*
D22*
X137057500Y-79685000D03*
%TD*%
D15*
%TO.C,J2*%
X162135000Y-147965000D03*
X162135000Y-145425000D03*
D16*
X162135000Y-142885000D03*
%TD*%
D23*
%TO.C,SupCap1*%
X140685000Y-136565000D03*
X137185000Y-136565000D03*
%TD*%
D15*
%TO.C,J4*%
X185935000Y-148165000D03*
X185935000Y-145625000D03*
D16*
X185935000Y-143085000D03*
%TD*%
D15*
%TO.C,J1*%
X170135000Y-143085000D03*
X170135000Y-145625000D03*
D16*
X170135000Y-148165000D03*
%TD*%
D15*
%TO.C,J6*%
X154335000Y-142765000D03*
X154335000Y-145305000D03*
D16*
X154335000Y-147845000D03*
%TD*%
D24*
%TO.C,D2*%
X176135000Y-135505000D03*
D25*
X176135000Y-132965000D03*
%TD*%
D15*
%TO.C,J10*%
X138935000Y-147905000D03*
D16*
X138935000Y-145365000D03*
%TD*%
D26*
%TO.C,J11*%
X119620000Y-131410000D03*
X129780000Y-131410000D03*
X129780000Y-141570000D03*
X119620000Y-141570000D03*
D27*
X124700000Y-136490000D03*
%TD*%
D24*
%TO.C,D1*%
X167935000Y-135505000D03*
D25*
X167935000Y-132965000D03*
%TD*%
D15*
%TO.C,J8*%
X193935000Y-142865000D03*
X193935000Y-145405000D03*
D16*
X193935000Y-147945000D03*
%TD*%
D28*
%TO.C,MH1*%
X92500000Y-45000000D03*
%TD*%
%TO.C,MH2*%
X207500000Y-45000000D03*
%TD*%
%TO.C,MH3*%
X207500000Y-155000000D03*
%TD*%
%TO.C,MH4*%
X92500000Y-155000000D03*
%TD*%
%LPD*%
M02*
